<svg xmlns="http://www.w3.org/2000/svg" viewBox="0 0 32 32" width="32" height="32">
  <g id="topleft" transform="translate(0, 0)">
    <path style="fill:#000000;fill-opacity:0.4" d="M10 10 V0 C4.477 0 0 4.477 0 10 Z"/>
    <path style="fill:none;stroke:#ffffff;stroke-opacity:0.15;stroke-width:1" d="M10 0.5 C4.75 0.5 0.5 4.75 0.5 10"/>
  </g>
  <g id="top" transform="translate(10, 0)">
    <rect style="fill:#000000;fill-opacity:0.4" width="12" height="10"/>
    <line style="fill:none;stroke:#ffffff;stroke-opacity:0.15;stroke-width:1" x1="0" y1="0.5" x2="12" y2="0.5"/>
  </g>
  <g id="topright" transform="translate(22, 0)">
    <path style="fill:#000000;fill-opacity:0.4" d="M0 10 V0 C5.523 0 10 4.477 10 10 Z"/>
    <path style="fill:none;stroke:#ffffff;stroke-opacity:0.15;stroke-width:1" d="M0 0.5 C5.25 0.5 9.5 4.75 9.5 10"/>
  </g>
  
  <g id="left" transform="translate(0, 10)">
    <rect style="fill:#000000;fill-opacity:0.4" width="10" height="12"/>
    <line style="fill:none;stroke:#ffffff;stroke-opacity:0.15;stroke-width:1" x1="0.5" y1="0" x2="0.5" y2="12"/>
  </g>
  <g id="center" transform="translate(10, 10)">
    <rect style="fill:#000000;fill-opacity:0.4" width="12" height="12"/>
  </g>
  <g id="right" transform="translate(22, 10)">
    <rect style="fill:#000000;fill-opacity:0.4" width="10" height="12"/>
    <line style="fill:none;stroke:#ffffff;stroke-opacity:0.15;stroke-width:1" x1="9.5" y1="0" x2="9.5" y2="12"/>
  </g>
  
  <g id="bottomleft" transform="translate(0, 22)">
    <path style="fill:#000000;fill-opacity:0.4" d="M10 0 V10 C4.477 10 0 5.523 0 0 Z"/>
    <path style="fill:none;stroke:#ffffff;stroke-opacity:0.15;stroke-width:1" d="M10 9.5 C4.75 9.5 0.5 5.25 0.5 0"/>
  </g>
  <g id="bottom" transform="translate(10, 22)">
    <rect style="fill:#000000;fill-opacity:0.4" width="12" height="10"/>
    <line style="fill:none;stroke:#ffffff;stroke-opacity:0.15;stroke-width:1" x1="0" y1="9.5" x2="12" y2="9.5"/>
  </g>
  <g id="bottomright" transform="translate(22, 22)">
    <path style="fill:#000000;fill-opacity:0.4" d="M0 0 V10 C5.523 10 10 5.523 10 0 Z"/>
    <path style="fill:none;stroke:#ffffff;stroke-opacity:0.15;stroke-width:1" d="M0 9.5 C5.25 9.5 9.5 5.25 9.5 0"/>
  </g>

  <!-- PADDING HINTS TO PREVENT THICKNESS/FATNESS -->
  <rect id="hint-top-margin" width="1" height="2" style="fill:none"/>
  <rect id="hint-bottom-margin" width="1" height="2" style="fill:none"/>
  <rect id="hint-left-margin" width="6" height="1" style="fill:none"/>
  <rect id="hint-right-margin" width="6" height="1" style="fill:none"/>
</svg>
